<?xml version="1.0" encoding="utf-8"?>
<svg fill="none" height="21" width="23" xmlns="http://www.w3.org/2000/svg">
  <mask id="a" fill="#000" height="14" maskUnits="userSpaceOnUse" width="20" x="3" y="1.518">
    <path d="M3 1.518h20v14H3z" fill="#fff"/>
    <path d="M21.288 2.518a.703.703 0 00-.476.202L10.235 12.91 5.19 8.05a.707.707 0 00-.988-.009.654.654 0 00.01.952l5.533 5.33c.27.26.709.26.978 0L21.79 3.663a.648.648 0 00.155-.738.692.692 0 00-.657-.406z"/>
  </mask>
  <circle cx="10" cy="10.518" r="10" style="fill: rgb(180, 226, 240);"/>
  <g fill="#0074a2">
    <path d="M21.288 2.518a.703.703 0 00-.476.202L10.235 12.91 5.19 8.05a.707.707 0 00-.988-.009.654.654 0 00.01.952l5.533 5.33c.27.26.709.26.978 0L21.79 3.663a.648.648 0 00.155-.738.692.692 0 00-.657-.406z"/>
    <path d="M21.288 2.518l.217-.123-.074-.13-.15.004zm-.476.202l.174.18.002-.002zM10.235 12.91l-.174.18.174.166.173-.167zM5.19 8.05l.173-.18-.073-.07h-.1zm-.001 0l-.177.177.074.073h.103zm-.492-.204l-.002.25zm-.496.195l-.172-.18h-.001zM4 8.52l.25-.002zm.212.474l.173-.18-.003-.003zm5.533 5.33l-.173.18zm.978 0l.174.18zM21.79 3.663l-.17-.183-.003.003zm.155-.738l-.23.1h.001zm-.657-.406l-.217.123.074.13.15-.004zm-.007-.25a.954.954 0 00-.644.273l.351.356a.454.454 0 01.307-.13zm-.642.271L10.06 12.729l.347.36L20.986 2.9zm-10.23 10.189L5.363 7.87l-.347.36 5.044 4.86zM5.19 7.8v.5zm.175.073a.957.957 0 00-.666-.277l-.004.5a.46.46 0 01.317.131zM4.7 7.596a.96.96 0 00-.67.264l.345.362a.46.46 0 01.32-.126zm-.671.265a.905.905 0 00-.279.66l.5-.004a.405.405 0 01.126-.296zm-.279.66a.9.9 0 00.292.655l.34-.366a.404.404 0 01-.132-.293zm.288.652l5.534 5.33.347-.36-5.534-5.33zm5.534 5.33a.96.96 0 001.325 0l-.347-.36a.46.46 0 01-.631 0zm1.325 0l11.067-10.66-.347-.36-11.067 10.66zM21.96 3.845a.898.898 0 00.213-1.02l-.458.2a.398.398 0 01-.097.455zm.213-1.02a.942.942 0 00-.893-.556l.014.5c.188-.006.353.1.42.256zm-.669-.43l-.434.247z" mask="url(#a)"/>
  </g>
</svg>